<?xml version="1.0" encoding="UTF-8"?>
<svg id="Layer_2" data-name="Layer 2" xmlns="http://www.w3.org/2000/svg" viewBox="0 0 782.02 684.64">
  <defs>
    <style>
      .cls-1 {
        fill: none;
      }

      .cls-1, .cls-2, .cls-3 {
        fill-rule: evenodd;
      }

      .cls-1, .cls-2, .cls-3, .cls-4 {
        stroke-width: 0px;
      }

      .cls-2 {
        fill: #3b3b3c;
      }

      .cls-3, .cls-4 {
        fill: #fff;
      }
    </style>
  </defs>
  <g id="_3" data-name="3">
    <g>
      <path class="cls-4" d="M75.7,628.24c-7.5.25-10.81-10.48-4.22-14.4,15.42-9.86,25.08-22.63,26.5-35.03,1.9-24.94-21.33-36.85-45.54-36.59-76.78,5.3-59.84-108.11-9.3-129.5,24.09-11.1,45.92-17.11,47.34-3.85,0,18.27-68.28-2.48-74.45,76.46-6.19,62.75,53.13,25.95,82.84,56.73,28.71,28.16,12.66,70.05-23.16,86.18Z"/>
      <g>
        <g>
          <path class="cls-4" d="M26.56,668.06c-3.24.1-5.19-4.11-2.92-6.5,0,0,24.86-28.02,24.86-28.02,1.43-1.61,3.9-1.76,5.52-.33,1.61,1.43,1.76,3.9.33,5.52-1.46.83-25.82,31.19-27.78,29.33Z"/>
          <path class="cls-4" d="M45.16,684.56c-3.24.1-5.19-4.11-2.92-6.5,0,0,24.86-28.02,24.86-28.02,1.43-1.61,3.9-1.76,5.52-.33,1.61,1.43,1.76,3.9.33,5.52-1.46.83-25.82,31.19-27.78,29.33Z"/>
        </g>
        <g>
          <path class="cls-3" d="M74.88,664.8c-1.28,2.41-4.78,3.01-6.78,1.14-7.38-6.55-22.83-20.25-30.21-26.8-1-.89-1.54-2.17-1.48-3.51.06-1.33.73-2.57,1.8-3.36,7.66-5.6,23.59-17.27,34.17-25.01,6.04-4.42,14.35-4.03,19.95.94,5.6,4.97,6.97,13.17,3.3,19.69-6.43,11.43-16.11,28.64-20.76,36.91Z"/>
          <path class="cls-4" d="M71.01,670.96c-4.18,1.81-32.35-26.96-35.71-28.9-3.94-3.32-3.62-10.01.6-12.94,0,0,34.17-25.02,34.17-25.02,16.71-12.53,39.45,7.6,28.97,25.7,0,0-20.76,36.9-20.76,36.9-1.45,2.62-4.29,4.26-7.27,4.25ZM74.88,664.8h.01-.01ZM81.77,608.12c-5.4-1.67-36.61,24.93-41.25,27.31-.87,1.23,29.92,27.12,30.58,27.71.66,0,20.74-36.87,21.13-37.16,4.6-7.63-1.62-18.18-10.47-17.86Z"/>
        </g>
      </g>
    </g>
    <path class="cls-1" d="M305.03,516.79l349.16-16.55s-6.69,59.4-10.21,90.62c-1.21,10.77-10.06,19.06-20.89,19.58-55.9,2.65-220.78,10.46-276.68,13.11-10.82.51-20.42-6.91-22.65-17.51-6.45-30.75-18.73-89.25-18.73-89.25Z"/>
    <path class="cls-3" d="M648.19,512.55c-2.47,23.01-6.58,85.8-14.01,88.79-2.99,2.81-6.94,4.6-11.29,4.82l-276.62,14.31c-9.36.5-17.68-5.88-19.65-15.04l-9.98-46.23c-1.87.25-3.76.53-5.66.8,4.98,27.35,11.46,57.91,19.05,61.32,6.14,14.63,281.19-10.34,293.27-6.61,6.46-.3,12.35-2.92,16.8-7.07,11.13-6.05,13.98-68.86,16.8-96.03-2.92.18-5.82.52-8.71.93Z"/>
    <path class="cls-1" d="M757.24,606.13c-.34-11.85-11.24-21.79-23.08-20.99-90.68,4.3-434.55,20.59-525.23,24.89-11.83.33-21.8,11.26-20.98,23.09.34,11.84,11.23,21.78,23.07,20.99,90.68-4.3,434.56-20.59,525.23-24.89,11.83-.33,21.8-11.25,20.99-23.08Z"/>
    <path class="cls-3" d="M761.65,605.92c-.49-14.14-13.54-25.96-27.68-24.93-113.69,8.05-397.81,18.1-534.21,29.36-19.01,8.15-17.74,38.02,2.06,44.39,47.11,2.88,122.2-5.17,219.42-7.82,132.78-7.52,262.85-7.74,325.18-15.91,9.5-4.32,15.8-14.63,15.22-25.09ZM752.83,606.33c.68,9.51-7.24,18.32-16.78,18.64-52.67,2.74-190.79,10-315.07,16.39-96.07,3.61-172,11.37-217.78,9.54-16.45-5.26-17.77-30.21-1.79-37.06,135.59-11.24,420.14-18.64,532.96-24.57,9.51-.55,18.3,7.49,18.47,17.05Z"/>
    <path class="cls-1" d="M729.58,447.68c3.53-.04,7.01-.32,10.48-.73,2.99-14.01,5.37-25.14,5.37-25.14l-542.17,67.93s2.88,5.82,7.03,14.2h8.01c6.45,0,6.43,10,0,10h-3.06c5.93,11.97,12.87,25.98,17.91,36.17,4.17,8.41,13.21,13.27,22.52,12.11,73.3-9.18,383.54-48.05,456.83-57.23,9.32-1.17,16.88-8.11,18.84-17.29,1.74-8.16,3.97-18.57,6.13-28.69-1.4.14-2.81.2-4.22.11-1.08-.06-2.08-.43-2.9-1.01-.35-.11-.68-.26-.99-.43-6.24-.14-6.16-9.92.2-9.99Z"/>
    <path class="cls-3" d="M733.34,459.12c-3.45,17.06-7.66,34.78-11.57,37.04-39.08,13.73-105.09,14.04-192.46,27.93-119.36,12.33-231.42,35.92-285.53,33.26-5.93-1.44-17.11-24.71-25.86-43.41h-5.46l18.3,37.35c4.65,9.48,14.79,14.96,25.27,13.69,73.53-13.16,381.43-37.78,471.59-62.44,6.2-3.81,11.06-24.62,14.88-44.26-.07.02-.13.04-.2.05-2.96.49-5.94.95-8.95.79Z"/>
    <path class="cls-3" d="M293.32,496.86c1.54.83,18.57,52.9,22.31,49.39,5.16.59-14.72-50.99-13.99-52.36-1.85-5.41-10.32-2.41-8.32,2.97Z"/>
    <path class="cls-1" d="M171.08,106.07l49.86,397.97s-106.54-26.82-146.19-36.8c-8.83-2.21-15.38-9.63-16.51-18.66-6.06-48.39-25.09-200.23-31.15-248.62-1.13-9.03,3.39-17.83,11.4-22.16,35.96-19.46,132.59-71.72,132.59-71.72Z"/>
    <path class="cls-3" d="M170.69,488.11l-95.16-23.96c-7.54-1.91-13.13-8.26-14.08-15.97l-30.54-248.7c-.45-3.73.26-7.39,1.92-10.58-1.2-5.34,56.53-34.77,96.83-55.47-.99-3.05-1.45-6.27-1.03-9.29-42.57,22.37-103.23,54.38-102.72,61.19-2.32,4.56-3.31,9.8-2.63,15.1l31.76,248.55c1.31,10.34,8.83,18.82,18.95,21.35l97.02,24.41c-.17-2.2-.26-4.41-.3-6.63Z"/>
    <g>
      <path class="cls-4" d="M47.23,211.55c-4.49.16-6.15-6.52-1.94-8.4,0,0,66.38-32.36,66.38-32.36,2.2-1.07,4.84-.16,5.91,2.04,1.07,2.2.16,4.84-2.04,5.91-2.02.49-66.14,33.19-68.31,32.81Z"/>
      <path class="cls-4" d="M148.29,456.08c-1.11.07-72.13-14.97-73.21-15.08-2.39-.5-3.93-2.84-3.43-5.23.5-2.39,2.83-3.93,5.23-3.43l72.31,14.99c5.11.93,4.26,8.9-.89,8.75Z"/>
      <path class="cls-4" d="M50.81,240.2c-4.71.16-6.14-7-1.56-8.56,0,0,67.25-25.39,67.25-25.39,2.29-.86,4.84.29,5.7,2.58.86,2.28-.29,4.84-2.58,5.7-1.54.29-67.26,25.95-68.81,25.68Z"/>
      <path class="cls-4" d="M143.83,420.45c-.46.03-71.44-8.01-71.94-8.04-2.43-.27-4.17-2.46-3.9-4.89.27-2.43,2.47-4.18,4.89-3.9l71.44,8.01c5.41.49,4.92,8.94-.49,8.82Z"/>
      <path class="cls-4" d="M54.4,268.85c-4.89.15-6.1-7.36-1.27-8.66,0,0,67.87-20.43,67.87-20.43,2.34-.7,4.81.62,5.51,2.96.7,2.34-.62,4.81-2.96,5.51-1.53.26-67.58,20.72-69.15,20.62Z"/>
      <path class="cls-4" d="M139.62,386.83s-70.93-3.07-71.01-3.06c-2.44-.11-4.33-2.17-4.23-4.61.11-2.44,2.14-4.32,4.61-4.23l70.81,3.05c5.6.15,5.43,8.94-.19,8.84Z"/>
      <path class="cls-4" d="M57.99,297.51c-5.08.14-6.04-7.75-.95-8.74,0,0,68.53-15.21,68.53-15.21,2.38-.53,4.75.98,5.28,3.36.53,2.38-.97,4.75-3.36,5.28-1.27.16-68.22,15.36-69.49,15.32Z"/>
      <path class="cls-4" d="M65.21,355.13c-5.62.09-5.8-8.76-.13-8.84,0,0,70.16-2.17,70.16-2.17,2.43-.06,4.48,1.84,4.56,4.28.08,2.44-1.84,4.48-4.28,4.56-.14,0-70.17,2.17-70.3,2.17Z"/>
      <path class="cls-4" d="M61.58,326.16c-5.35.12-5.94-8.25-.54-8.81,0,0,69.34-8.69,69.34-8.69,2.42-.31,4.64,1.42,4.94,3.84.3,2.42-1.42,4.63-3.84,4.94-.55.03-69.38,8.76-69.9,8.72Z"/>
    </g>
    <path class="cls-3" d="M416.44,488.9c21.73-2.35,25.77,29.91,4.13,32.99-21.73,2.35-25.76-29.91-4.13-32.99Z"/>
    <path class="cls-3" d="M415.89,484.52c-25.16,4.43-20.86,42.25,4.94,39.43,25.53-3.77,20.42-41.21-4.94-39.43ZM416.99,493.28c18.05-3.2,21.02,24.39,3.32,26.54-17.53,2.11-21.45-25.08-3.32-26.54Z"/>
    <path class="cls-3" d="M489.77,479.72c21.73-2.35,25.77,29.91,4.13,32.99-21.73,2.35-25.76-29.91-4.13-32.99Z"/>
    <path class="cls-3" d="M489.22,475.34c-25.16,4.43-20.86,42.25,4.94,39.43,25.53-3.77,20.42-41.21-4.94-39.43ZM490.31,484.1c18.05-3.2,21.02,24.39,3.32,26.54-17.53,2.11-21.45-25.08-3.32-26.54Z"/>
    <g>
      <path class="cls-3" d="M563.09,470.53c21.73-2.35,25.77,29.91,4.13,32.99-21.73,2.35-25.76-29.91-4.13-32.99Z"/>
      <path class="cls-3" d="M562.54,466.15c-25.16,4.43-20.86,42.25,4.94,39.43,25.53-3.77,20.42-41.21-4.94-39.43ZM563.64,474.91c18.05-3.2,21.02,24.39,3.32,26.54-17.53,2.11-21.45-25.08-3.32-26.54Z"/>
    </g>
    <g>
      <path class="cls-3" d="M636.41,461.34c21.73-2.35,25.77,29.91,4.13,32.99-21.73,2.35-25.76-29.91-4.13-32.99Z"/>
      <path class="cls-3" d="M635.86,456.96c-25.16,4.43-20.86,42.25,4.94,39.43,25.53-3.77,20.42-41.21-4.94-39.43ZM636.96,465.72c18.05-3.2,21.02,24.39,3.32,26.54-17.53,2.11-21.45-25.08-3.32-26.54Z"/>
    </g>
    <path class="cls-1" d="M778.08,435c-9.64-76.95-41.89-334.37-51.53-411.32-1.52-12.1-12.55-20.67-24.64-19.16-201.56,29.35-441.23,42.75-560.78,87.78-10.37,3.06-17,13.18-15.65,23.92,8.67,69.21,39.02,311.44,47.86,382.03,1.39,11.09,10.85,19.39,22.03,19.33,35.32-.2,106.01-.61,106.01-.61l457.55-57.32c12.1-1.52,20.67-12.55,19.16-24.64ZM218.31,513.94h-10.98c-6.45,0-6.43-10,0-10h10.98c6.45,0,6.43,10,0,10ZM752.24,455.2c-2.38.4-4.76.78-7.14,1.12-.63,1.02-1.6,1.81-2.8,2.01-2.99.49-5.99.96-9.02.79-1.08-.06-2.08-.43-2.9-1.01-.35-.11-.68-.26-.99-.43-6.24-.14-6.16-9.92.2-9.99,6.75-.07,13.35-1.02,20-2.13,6.31-1.05,8.99,8.59,2.66,9.64Z"/>
    <path class="cls-3" d="M781.82,434.53l-50.89-411.4c-1.84-14.49-15.07-24.76-29.57-22.92-79.81,11.94-496.08,53.73-561.19,88.85-11.95,3.53-19.58,15.2-18.02,27.57l48.07,382c.79,6.33,3.89,11.87,8.38,15.82,6.54,12.54,111.08,3.4,122.79,5.72.25.06,457.68-56.83,457.99-56.83,7.07-.88,13.12-4.54,17.18-9.75,4.06-5.22,6.13-11.98,5.26-19.06ZM770.65,448.99c-2.88,3.71-7.16,6.32-12.19,6.96l-14.84,1.88c-.4.25-.85.42-1.33.5-2.95.49-5.91.95-8.9.79l-432.22,54.65-105.82.66c-9.59.06-17.71-7.06-18.9-16.57l-47.65-382.05c-1.13-9.1,4.5-17.67,13.29-20.26C204.31,61.23,625.69,20.03,702.45,8.84c9.69-1.19,18.54,5.69,19.72,15.39l52.17,411.24c.63,5.02-.82,9.82-3.69,13.52Z"/>
    <path class="cls-2" d="M691.01,61.93c-1.52-12.1-12.55-20.67-24.64-19.16-69.3,8.68-283.28,35.49-352.58,44.17-12.1,1.52-20.67,12.55-19.16,24.64,8.17,65.25,32.3,257.84,40.48,323.09,1.52,12.1,12.55,20.67,24.64,19.16,69.3-8.68,283.28-35.49,352.58-44.17,12.1-1.52,20.67-12.55,19.16-24.64-8.17-65.25-32.3-257.84-40.48-323.09Z"/>
    <path class="cls-3" d="M695.39,61.38c-1.85-14.48-15.08-24.74-29.56-22.89l-352.48,45.02c-13.97,1.77-23.87,14.53-22.1,28.5l40.74,323.06c1.73,13.82,14.33,23.63,28.15,21.9l352.65-43.67c7.06-.87,13.09-4.53,17.15-9.73,4.06-5.2,6.13-11.96,5.25-19.02l-39.8-323.18ZM686.63,62.48l41.16,323.01c1.28,10.07-5.85,19.26-15.92,20.54l-352.52,44.68c-5.18.65-10.14-.86-13.97-3.83-3.83-2.97-6.52-7.4-7.17-12.59l-40.22-323.12c-1.26-10.22,5.99-19.53,16.21-20.78l352.69-43.33c9.71-1.18,18.54,5.71,19.73,15.42Z"/>
    <g>
      <path class="cls-4" d="M689.09,316.28c-3.61,0-6.73-2.69-7.19-6.36l-14.43-115.15c-1.3-9.29,13.36-11.19,14.4-1.8,0,0,14.43,115.15,14.43,115.15.57,4.3-2.88,8.19-7.21,8.16Z"/>
      <path class="cls-4" d="M670.25,165.96c-3.61,0-6.73-2.69-7.19-6.36-2.44-7.56-4.36-66.77-12.97-70.29.75-8.37-135.13,14.32-139.47,13.31-9.27,1.3-11.21-13.37-1.8-14.4,0,0,129.05-16.17,129.05-16.17,15.23-2.22,30.37,9.53,31.96,24.84,0,0,7.63,60.91,7.63,60.91.57,4.3-2.88,8.19-7.21,8.16Z"/>
    </g>
    <path class="cls-3" d="M703.41,422.08c19.89-2.4,23.67,27.82,3.81,30.39-19.88,2.4-23.67-27.82-3.81-30.39Z"/>
    <path class="cls-3" d="M702.86,417.7c-23.39,3.86-19.32,39.75,4.62,36.83,23.74-3.22,18.89-38.74-4.62-36.83h0ZM703.95,426.46c16.36-3.01,19,22.02,3,23.95-15.84,1.9-19.44-22.72-3-23.95Z"/>
    <path class="cls-3" d="M246.48,96.62c7.24,67.65,37.21,350.3,51.91,400.12,5.88-2.74-6.67-64.7-14.27-146.14-3.62-31.11-7.51-64.18-11.61-95.55-5.49-29.64-20.43-176.72-26.02-158.43Z"/>
  </g>
</svg>