<?xml version="1.0" encoding="utf-8"?>
<!-- Generator: Adobe Illustrator 28.3.0, SVG Export Plug-In . SVG Version: 6.00 Build 0)  -->
<svg version="1.1" xmlns="http://www.w3.org/2000/svg" xmlns:xlink="http://www.w3.org/1999/xlink" x="0px" y="0px"
	 viewBox="0 0 2000 2000" style="enable-background:new 0 0 2000 2000;" xml:space="preserve">
<style type="text/css">
	.st0{fill:#FFFFFF;}
	.st1{fill-rule:evenodd;clip-rule:evenodd;fill:#FFFFFF;}
	.st2{fill-rule:evenodd;clip-rule:evenodd;fill:none;}
	.st3{fill-rule:evenodd;clip-rule:evenodd;fill:#3B3B3C;}
</style>
<g id="BG" xmlns:serif="http://www.serif.com/">
</g>
<g id="_x34_">
</g>
<g id="_x33_">
	<g transform="matrix(0.914389,0,0,0.914389,16.0203,28.5827)">
		<path class="st0" d="M-1042.4,1085.8c-8.2,0.3-11.8-11.5-4.6-15.7c16.9-10.8,27.4-24.7,29-38.3c2.1-27.3-23.3-40.3-49.8-40
			c-84,5.8-65.4-118.2-10.2-141.6c26.3-12.1,50.2-18.7,51.8-4.2c0,20-74.7-2.7-81.4,83.6c-6.8,68.6,58.1,28.4,90.6,62
			C-985.6,1022.4-1003.2,1068.2-1042.4,1085.8z"/>
		<g transform="matrix(0.715802,0.698304,-0.698304,0.715802,321.61,74.7531)">
			<g>
				<path class="st0" d="M-278.3,1744.9c-2.5,2.6-7.2,0.8-7.3-2.9c0,0-1.9-40.9-1.9-40.9c-0.1-2.4,1.7-4.4,4.1-4.5
					c2.4-0.1,4.4,1.7,4.5,4.1C-279.5,1702.5-275.4,1744.8-278.3,1744.9z"/>
				<g transform="matrix(1,0,0,1,6.36442,0)">
					<path class="st0" d="M-257.5,1743.6c-2.5,2.6-7.2,0.8-7.3-2.9c0,0-1.9-40.9-1.9-40.9c-0.1-2.4,1.7-4.4,4.1-4.5
						c2.4-0.1,4.4,1.7,4.5,4.1C-258.7,1701.2-254.6,1743.6-257.5,1743.6z"/>
				</g>
			</g>
			<g>
				<path class="st1" d="M-243,1705.4c0.8,2.9-1.4,6-4.4,6.1c-10.8,0.5-33.3,1.6-44.1,2.1c-1.5,0.1-2.9-0.5-3.8-1.6
					c-1-1.1-1.4-2.6-1.2-4c1.7-10.2,5.3-31.5,7.6-45.7c1.4-8.1,8.2-14.1,16.3-14.5c8.2-0.4,15.5,5,17.6,12.9
					C-251.2,1674.5-245.7,1695.4-243,1705.4z"/>
				<path class="st0" d="M-241.3,1713.2c-1.9,4.6-45.9,3.6-50,4.6c-5.6,0.4-10.5-5.1-9.4-10.6c0,0,7.6-45.7,7.6-45.7
					c3.5-22.6,36.7-24.2,42.3-2c0,0,11.9,44.7,11.9,44.7C-238,1707.5-239,1710.9-241.3,1713.2z M-243,1705.4L-243,1705.4
					L-243,1705.4z M-280.9,1655.8c-5.5,2.8-9.6,47.5-11.4,52.9c0.3,1.6,44.1-1.6,45.1-1.7c0.5-0.5-11.9-44.7-11.8-45.2
					C-261.3,1652.3-274.2,1648.8-280.9,1655.8z"/>
			</g>
		</g>
	</g>
	<path class="st2" d="M-707.8,910l349.2-16.5c0,0-6.7,59.4-10.2,90.6c-1.2,10.8-10.1,19.1-20.9,19.6
		c-55.9,2.6-220.8,10.5-276.7,13.1c-10.8,0.5-20.4-6.9-22.6-17.5C-695.5,968.5-707.8,910-707.8,910z"/>
	<path class="st1" d="M-364.6,905.8c-2.5,23-6.6,85.8-14,88.8c-3,2.8-6.9,4.6-11.3,4.8l-276.6,14.3c-9.4,0.5-17.7-5.9-19.7-15
		l-10-46.2c-1.9,0.3-3.8,0.5-5.7,0.8c5,27.3,11.5,57.9,19.1,61.3c6.1,14.6,281.2-10.3,293.3-6.6c6.5-0.3,12.3-2.9,16.8-7.1
		c11.1-6,14-68.9,16.8-96C-358.8,905-361.7,905.4-364.6,905.8z"/>
	<path class="st2" d="M-255.6,999.3c-0.3-11.8-11.2-21.8-23.1-21c-90.7,4.3-434.6,20.6-525.2,24.9c-11.8,0.3-21.8,11.3-21,23.1
		c0.3,11.8,11.2,21.8,23.1,21c90.7-4.3,434.6-20.6,525.2-24.9C-264.7,1022.1-254.7,1011.2-255.6,999.3z"/>
	<path class="st1" d="M-251.1,999.1c-0.5-14.1-13.5-26-27.7-24.9c-113.7,8.1-397.8,18.1-534.2,29.4c-19,8.1-17.7,38,2.1,44.4
		c47.1,2.9,122.2-5.2,219.4-7.8c132.8-7.5,262.8-7.7,325.2-15.9C-256.9,1019.9-250.6,1009.6-251.1,999.1z M-260,999.5
		c0.7,9.5-7.2,18.3-16.8,18.6c-52.7,2.7-190.8,10-315.1,16.4c-96.1,3.6-172,11.4-217.8,9.5c-16.4-5.3-17.8-30.2-1.8-37.1
		c135.6-11.2,420.1-18.6,533-24.6C-268.9,981.9-260.1,990-260,999.5z"/>
	<path class="st2" d="M-283.2,840.9c3.5,0,7-0.3,10.5-0.7c3-14,5.4-25.1,5.4-25.1L-809.5,883c0,0,2.9,5.8,7,14.2h8
		c6.4,0,6.4,10,0,10h-3.1c5.9,12,12.9,26,17.9,36.2c4.2,8.4,13.2,13.3,22.5,12.1c73.3-9.2,383.5-48.1,456.8-57.2
		c9.3-1.2,16.9-8.1,18.8-17.3c1.7-8.2,4-18.6,6.1-28.7c-1.4,0.1-2.8,0.2-4.2,0.1c-1.1-0.1-2.1-0.4-2.9-1c-0.3-0.1-0.7-0.3-1-0.4
		C-289.7,850.7-289.6,841-283.2,840.9z"/>
	<path class="st1" d="M-279.5,852.3c-3.5,17.1-7.7,34.8-11.6,37c-39.1,13.7-105.1,14-192.5,27.9c-119.4,12.3-231.4,35.9-285.5,33.3
		c-5.9-1.4-17.1-24.7-25.9-43.4h-5.5l18.3,37.4c4.6,9.5,14.8,15,25.3,13.7c73.5-13.2,381.4-37.8,471.6-62.4
		c6.2-3.8,11.1-24.6,14.9-44.3c-0.1,0-0.1,0-0.2,0C-273.5,852-276.4,852.5-279.5,852.3z"/>
	<g transform="matrix(0.914389,0,0,0.914389,16.0203,28.5827)">
		<path class="st1" d="M-804.4,942.2c1.7,0.9,20.3,57.9,24.4,54c5.6,0.6-16.1-55.8-15.3-57.3C-797.3,933-806.5,936.3-804.4,942.2z"
			/>
	</g>
	<path class="st2" d="M-841.7,499.3l49.9,398c0,0-106.5-26.8-146.2-36.8c-8.8-2.2-15.4-9.6-16.5-18.7
		c-6.1-48.4-25.1-200.2-31.1-248.6c-1.1-9,3.4-17.8,11.4-22.2C-938.3,551.5-841.7,499.3-841.7,499.3z"/>
	<path class="st1" d="M-842.1,881.3l-95.2-24c-7.5-1.9-13.1-8.3-14.1-16l-30.5-248.7c-0.5-3.7,0.3-7.4,1.9-10.6
		c-1.2-5.3,56.5-34.8,96.8-55.5c-1-3.1-1.5-6.3-1-9.3c-42.6,22.4-103.2,54.4-102.7,61.2c-2.3,4.6-3.3,9.8-2.6,15.1l31.8,248.5
		c1.3,10.3,8.8,18.8,18.9,21.3l97,24.4C-842,885.7-842.1,883.5-842.1,881.3z"/>
	<g transform="matrix(0.997015,-0.0772024,0.0772024,0.997015,-25.8292,12.9771)">
		<g transform="matrix(1,0,0,1,-1.28888,0)">
			<path class="st0" d="M-981.3,517.5c-4.5-0.2-5.6-7-1.3-8.5c0,0,68.7-27.1,68.7-27.1c2.3-0.9,4.8,0.2,5.7,2.5
				c0.9,2.3-0.2,4.8-2.5,5.7C-912.7,490.4-979.2,518-981.3,517.5z"/>
		</g>
		<g transform="matrix(1,0,0,-1,-1.28888,673.951)">
			<path class="st0" d="M-899.4-95.1c-1.1,0-70.8,20.5-71.8,20.7c-2.3,0.7-3.7,3.1-3,5.5c0.7,2.3,3.1,3.7,5.5,3l70.9-20.5
				C-892.9-87.8-894.3-95.7-899.4-95.1z"/>
		</g>
		<g transform="matrix(1,0,0,1,-1.28888,6.75759)">
			<path class="st0" d="M-980,539.6c-4.7-0.2-5.6-7.4-0.9-8.7c0,0,69-20.1,69-20.1c2.3-0.7,4.8,0.7,5.5,3c0.7,2.3-0.7,4.8-3,5.5
				C-910.9,519.4-978.4,539.9-980,539.6z"/>
		</g>
		<g transform="matrix(1,0,0,-1,-1.28888,667.193)">
			<path class="st0" d="M-901.1-66c-0.5,0-70.6,13.5-71.1,13.6c-2.4,0.5-4,2.8-3.5,5.2c0.5,2.4,2.8,4,5.2,3.5l70.6-13.5
				C-894.6-58.2-895.8-66.5-901.1-66z"/>
		</g>
		<g transform="matrix(1,0,0,1,-1.28888,13.5152)">
			<path class="st0" d="M-978.6,561.6c-4.9-0.2-5.5-7.8-0.6-8.7c0,0,69.2-15.1,69.2-15.1c2.4-0.5,4.7,1,5.3,3.4
				c0.5,2.4-1,4.7-3.4,5.3C-909.6,546.6-977.1,561.9-978.6,561.6z"/>
		</g>
		<g transform="matrix(1,0,0,-1,-1.28888,660.436)">
			<path class="st0" d="M-902.7-38.9c0,0-70.5,8.5-70.6,8.5c-2.4,0.3-4.2,2.5-3.9,4.9c0.3,2.4,2.5,4.1,4.9,3.9l70.4-8.5
				C-896.3-30.7-897.2-39.5-902.7-38.9z"/>
		</g>
		<g transform="matrix(1,0,0,1,-1.28888,20.2728)">
			<path class="st0" d="M-977.2,583.7c-5.1-0.3-5.4-8.2-0.3-8.8c0,0,69.5-9.9,69.5-9.9c2.4-0.3,4.7,1.3,5,3.8c0.3,2.4-1.3,4.7-3.8,5
				C-908,573.9-976,583.9-977.2,583.7z"/>
		</g>
		<g transform="matrix(1,0,0,-1,-1.28888,653.678)">
			<path class="st0" d="M-974.5-8.3c-5.6,0.3-5.1,9.2,0.5,8.8c0,0,70.1-3.3,70.1-3.3c2.4-0.1,4.3-2.2,4.2-4.6
				c-0.1-2.4-2.2-4.3-4.6-4.2C-904.4-11.6-974.4-8.3-974.5-8.3z"/>
		</g>
		<g transform="matrix(1,0,0,1,-1.28888,27.0304)">
			<path class="st0" d="M-975.9,605.8c-5.3-0.3-5.3-8.7,0.1-8.8c0,0,69.8-3.3,69.8-3.3c2.4-0.1,4.5,1.8,4.6,4.2
				c0.1,2.4-1.8,4.5-4.2,4.6C-906.1,602.5-975.4,605.9-975.9,605.8z"/>
		</g>
	</g>
	<path class="st1" d="M-596.4,882.1c21.7-2.3,25.8,29.9,4.1,33C-613.9,917.5-618,885.2-596.4,882.1z"/>
	<path class="st1" d="M-596.9,877.7c-25.2,4.4-20.9,42.3,4.9,39.4C-566.4,913.4-571.5,875.9-596.9,877.7z M-595.8,886.5
		c18-3.2,21,24.4,3.3,26.5C-610,915.1-613.9,888-595.8,886.5z"/>
	<path class="st1" d="M-523,872.9c21.7-2.3,25.8,29.9,4.1,33C-540.6,908.3-544.7,876-523,872.9z"/>
	<path class="st1" d="M-523.6,868.5c-25.2,4.4-20.9,42.3,4.9,39.4C-493.1,904.2-498.2,866.8-523.6,868.5z M-522.5,877.3
		c18-3.2,21,24.4,3.3,26.5C-536.7,906-540.6,878.8-522.5,877.3z"/>
	<g transform="matrix(1,0,0,1,40.0782,0)">
		<path class="st1" d="M-489.8,863.7c21.7-2.3,25.8,29.9,4.1,33C-507.4,899.1-511.4,866.8-489.8,863.7z"/>
		<path class="st1" d="M-490.3,859.4c-25.2,4.4-20.9,42.3,4.9,39.4C-459.9,895-465,857.6-490.3,859.4z M-489.2,868.1
			c18-3.2,21,24.4,3.3,26.5C-503.4,896.8-507.4,869.6-489.2,868.1z"/>
	</g>
	<g transform="matrix(1,0,0,1,57.3708,0)">
		<path class="st1" d="M-433.8,854.6c21.7-2.3,25.8,29.9,4.1,33C-451.3,889.9-455.4,857.6-433.8,854.6z"/>
		<path class="st1" d="M-434.3,850.2c-25.2,4.4-20.9,42.3,4.9,39.4C-403.8,885.8-408.9,848.4-434.3,850.2z M-433.2,858.9
			c18-3.2,21,24.4,3.3,26.5C-447.4,887.6-451.3,860.4-433.2,858.9z"/>
	</g>
	<path class="st2" d="M-234.7,828.2c-9.6-76.9-41.9-334.4-51.5-411.3c-1.5-12.1-12.5-20.7-24.6-19.2
		c-201.6,29.4-441.2,42.7-560.8,87.8c-10.4,3.1-17,13.2-15.7,23.9c8.7,69.2,39,311.4,47.9,382c1.4,11.1,10.8,19.4,22,19.3
		c35.3-0.2,106-0.6,106-0.6l457.6-57.3C-241.8,851.3-233.2,840.3-234.7,828.2z M-794.5,907.2h-11c-6.4,0-6.4-10,0-10h11
		C-788,897.2-788,907.2-794.5,907.2z M-260.6,848.4c-2.4,0.4-4.8,0.8-7.1,1.1c-0.6,1-1.6,1.8-2.8,2c-3,0.5-6,1-9,0.8
		c-1.1-0.1-2.1-0.4-2.9-1c-0.3-0.1-0.7-0.3-1-0.4c-6.2-0.1-6.2-9.9,0.2-10c6.8-0.1,13.4-1,20-2.1
		C-256.9,837.7-254.2,847.4-260.6,848.4z"/>
	<path class="st1" d="M-231,827.7l-50.9-411.4c-1.8-14.5-15.1-24.8-29.6-22.9c-79.8,11.9-496.1,53.7-561.2,88.9
		c-12,3.5-19.6,15.2-18,27.6l48.1,382c0.8,6.3,3.9,11.9,8.4,15.8c6.5,12.5,111.1,3.4,122.8,5.7c0.3,0.1,457.7-56.8,458-56.8
		c7.1-0.9,13.1-4.5,17.2-9.8C-232.2,841.6-230.1,834.8-231,827.7z M-242.1,842.2c-2.9,3.7-7.2,6.3-12.2,7l-14.8,1.9
		c-0.4,0.2-0.8,0.4-1.3,0.5c-2.9,0.5-5.9,0.9-8.9,0.8L-711.6,907l-105.8,0.7c-9.6,0.1-17.7-7.1-18.9-16.6L-884,509
		c-1.1-9.1,4.5-17.7,13.3-20.3c62.2-34.3,483.6-75.5,560.4-86.7c9.7-1.2,18.5,5.7,19.7,15.4l52.2,411.2
		C-237.8,833.7-239.3,838.5-242.1,842.2z"/>
	<path class="st3" d="M-321.8,455.1c-1.5-12.1-12.5-20.7-24.6-19.2c-69.3,8.7-283.3,35.5-352.6,44.2c-12.1,1.5-20.7,12.5-19.2,24.6
		c8.2,65.2,32.3,257.8,40.5,323.1c1.5,12.1,12.5,20.7,24.6,19.2c69.3-8.7,283.3-35.5,352.6-44.2c12.1-1.5,20.7-12.5,19.2-24.6
		C-289.5,713-313.6,520.4-321.8,455.1z"/>
	<path class="st1" d="M-317.4,454.6c-1.8-14.5-15.1-24.7-29.6-22.9l-352.5,45c-14,1.8-23.9,14.5-22.1,28.5l40.7,323.1
		c1.7,13.8,14.3,23.6,28.2,21.9l352.6-43.7c7.1-0.9,13.1-4.5,17.1-9.7c4.1-5.2,6.1-12,5.3-19L-317.4,454.6z M-326.2,455.7l41.2,323
		c1.3,10.1-5.8,19.3-15.9,20.5l-352.5,44.7c-5.2,0.7-10.1-0.9-14-3.8c-3.8-3-6.5-7.4-7.2-12.6l-40.2-323.1
		c-1.3-10.2,6-19.5,16.2-20.8l352.7-43.3C-336.2,439.1-327.3,446-326.2,455.7z"/>
	<g transform="matrix(0.997015,-0.0772024,0.0772024,0.997015,-28.0183,12.4193)">
		<g transform="matrix(0.735762,0,0,0.772758,41.4527,83.2862)">
			<path class="st0" d="M-530.2,762c-4.9-0.4-8.8-4.1-9.1-8.9l-7.5-150c-0.8-12.1,19.3-13.1,19.7-0.9c0,0,7.5,150,7.5,150
				C-519.2,757.8-524.3,762.5-530.2,762z"/>
		</g>
		<g transform="matrix(0.735762,0,0,0.772758,41.4527,83.2862)">
			<path class="st0" d="M-539.9,566.2c-4.9-0.4-8.8-4.1-9.1-8.9c-2.5-10,1.1-86.6-10.2-92c1.9-10.7-184.6,5-190.4,3.2
				c-12.7,0.8-13.8-18.4-0.9-18.8c0,0,176.6-8,176.6-8c20.9-1.3,40.1,15.3,40.7,35.2c0,0,3.9,79.3,3.9,79.3
				C-529,562-534,566.7-539.9,566.2z"/>
		</g>
	</g>
	<path class="st1" d="M-309.4,815.3c19.9-2.4,23.7,27.8,3.8,30.4C-325.5,848.1-329.2,817.9-309.4,815.3z"/>
	<path class="st1" d="M-309.9,810.9c-23.4,3.9-19.3,39.8,4.6,36.8C-281.6,844.5-286.4,809-309.9,810.9L-309.9,810.9z M-308.8,819.7
		c16.4-3,19,22,3,24C-321.7,845.5-325.3,820.9-308.8,819.7z"/>
	<g transform="matrix(0.997015,-0.0772024,0.0772024,0.997015,-25.8889,12.2054)">
		<path class="st1" d="M-775.1,419c2,68,10.1,352.1,20.9,402.9c6.1-2.3-1.7-65-2.9-146.8c-1.2-31.3-2.5-64.6-4.2-96.2
			C-764.6,549-768.1,401.2-775.1,419z"/>
	</g>
</g>
<g id="_x32_">
</g>
<g id="_x31_">
</g>
</svg>
