<?xml version="1.0" encoding="UTF-8"?>
<svg id="Layer_1" data-name="Layer 1" xmlns="http://www.w3.org/2000/svg" viewBox="0 0 352.43 423.41">
  <defs>
    <style>
      .cls-1 {
        fill: #fff;
        stroke-width: 0px;
      }
    </style>
  </defs>
  <path class="cls-1" d="m264.98,267.32l37.85-80.38-85.99,27.57v3.27c0,4.67-1.4,8.41-3.74,11.68l41.13,39.72c2.34-1.4,4.67-2.34,7.48-2.34,1.4,0,2.34,0,3.27.47ZM65.89,25.7c3.74,0,7.01,3.27,7.01,7.01s-3.27,7.01-7.01,7.01-6.54-3.27-6.54-7.01,2.8-7.01,6.54-7.01Zm-11.22,49.07c7.94,0,14.49,6.54,14.49,14.49s-6.54,14.49-14.49,14.49-14.49-6.54-14.49-14.49,6.54-14.49,14.49-14.49Zm-45.8,62.62c4.67,0,8.41,3.74,8.41,8.88,0,4.67-3.74,8.41-8.41,8.41s-8.88-3.74-8.88-8.41c0-5.14,4.21-8.88,8.88-8.88Zm7.01,171.05c6.08,0,11.22,4.67,11.22,10.75s-5.14,11.22-11.22,11.22-10.75-5.14-10.75-11.22,4.67-10.75,10.75-10.75Zm60.75,29.44c8.41,0,14.95,6.54,14.95,14.95s-6.54,14.95-14.95,14.95-14.95-6.54-14.95-14.95,6.54-14.95,14.95-14.95Zm-42.06-129.92c12.62,0,22.9,10.28,22.9,22.9s-10.28,23.37-22.9,23.37-23.37-10.28-23.37-23.37,10.28-22.9,23.37-22.9Zm164.97,191.61c1.4,0,3.27.47,4.67,1.4,6.08-4.21,14.02-7.48,23.83-10.28,1.4-.47,2.8-.47,3.74-.93l-50.01-29.44c-4.21,5.61-11.22,9.35-18.69,9.35-12.62,0-23.37-10.28-23.37-23.37,0-5.14,1.87-9.81,4.67-13.55l-40.66-37.85h0c-.47-.47-.93-.93-.93-1.4l-27.11-135.53c-7.94,0-14.02-6.54-14.02-14.02,0-7.94,6.08-14.49,14.02-14.49s14.02,6.54,14.02,14.49c0,1.4,0,3.27-.93,4.67l93.47,57.02c1.87-2.34,4.21-4.21,7.01-5.61l-18.69-60.75h-1.4c-7.94,0-14.02-6.08-14.02-14.02,0-2.34.47-4.67,1.4-7.01l-63.56-52.81c-1.4.93-3.27,1.4-5.61,1.4-5.61,0-9.81-4.21-9.81-9.81s4.21-10.28,9.81-10.28,10.28,4.67,10.28,10.28c0,1.4-.47,2.8-.93,4.21l63.56,52.81c1.87-1.4,4.67-2.8,7.48-2.8l7.48-85.99c-13.55-3.27-27.57-4.67-42.53-5.61-1.87,5.61-7.01,9.81-13.55,9.81-7.94,0-14.49-6.54-14.49-14.95,0-7.94,6.54-14.49,14.49-14.49,6.54,0,12.15,4.21,14.02,10.28,53.28,2.8,98.14,19.16,129.45,46.73,31.78,28.04,50.47,67.76,50.01,116.83v8.88c0,5.14,7.48,13.55,15.42,22.43,7.94,8.41,15.89,17.29,20.56,26.17,6.54,13.55,6.08,27.11-13.09,38.32.93.47,1.4,1.4,1.87,2.34,3.27,5.14,5.14,10.28,5.14,14.95-.47,4.21-1.87,7.94-4.67,11.22.47.47.93.93.93,1.4,1.87,2.34,2.8,5.14,3.27,8.41,0,2.8-.47,6.08-1.87,8.41l-.47.47c-.47.93-1.4,2.34-2.34,3.27,2.34,6.08,4.21,11.68,5.61,17.29,1.87,10.28.47,19.63-3.74,27.57-4.21,7.48-11.22,14.02-21.5,18.69-7.48,3.74-16.82,6.54-27.57,8.41h-.93c-24.3,1.4-43.93,3.74-58.88,7.48-8.41,2.34-14.95,5.14-19.63,7.94.47,1.4.47,2.8.47,4.21,0,6.54-5.14,11.68-11.68,11.68s-11.68-5.14-11.68-11.68,5.14-12.15,11.68-12.15Zm-36.45-76.64c1.4,0,2.34,0,3.27.47l23.37-87.39c-2.34-.93-4.21-2.34-5.61-3.74l-74.77,60.75,38.79,35.52c4.21-3.27,9.35-5.61,14.95-5.61Zm8.88,1.87c3.27,1.4,6.54,3.74,8.88,6.54l68.7-46.27c-.93-1.4-.93-2.8-.93-4.67,0-2.8.47-5.14,1.87-7.48l-41.13-39.72c-3.27,2.8-7.48,4.21-12.15,4.21h-2.34l-22.9,87.39Zm12.15,10.75c1.4,3.27,2.34,7.01,2.34,10.75,0,3.27-.47,6.54-1.87,9.35l55.61,32.25c13.09-2.34,29.44-4.21,48.6-4.67,7.01-1.4,13.55-3.27,18.69-5.14l-42.06-84.59c-1.4,0-2.34.47-3.74.47-3.27,0-6.54-1.87-9.35-4.21l-68.23,45.8Zm85.99-65.89c3.27,2.34,5.14,6.08,5.14,10.75,0,4.21-1.87,7.94-5.14,10.28l42.53,85.06,1.4-.47c7.94-3.74,14.02-8.88,17.29-14.95,3.27-5.61,3.74-13.09,2.34-21.03-.93-5.61-3.27-12.15-6.54-18.69-.93-2.34,0-4.67,2.34-6.08.93-.47,1.87-1.4,2.34-2.34v-.47c.93-.93.93-2.34.93-3.27,0-1.4-.47-2.8-1.4-3.74-.47-.93-1.4-1.87-2.8-2.34-.93,0-1.4-.93-2.34-1.4-1.4-2.34-.47-5.14,1.4-6.54.93-.47,1.4-.93,2.34-1.4,1.87-1.87,3.27-4.21,3.27-6.54,0-2.8-1.4-5.61-3.74-9.35-.93-1.87-2.34-3.74-4.21-5.61-.47-.47-.47-.93-.93-1.4-.93-2.34,0-5.14,2.34-6.08,17.29-8.88,18.23-18.69,13.55-28.51-4.21-7.94-11.68-16.36-18.69-24.3-6.08-6.54-11.68-12.62-14.95-18.69l-36.45,77.11Zm-72.9-71.5c7.94,0,14.49,4.67,17.76,11.22l85.06-27.11-119.17-49.07c-1.4,1.87-2.8,3.27-5.14,4.67l18.69,60.75c.93,0,1.87-.47,2.8-.47Zm-16.82,29.91c-1.4-2.8-2.8-6.54-2.8-10.28,0-2.34.93-5.14,1.87-7.48l-93.47-57.02c-1.4,1.4-2.8,2.8-4.67,3.74l25.7,130.85,73.37-59.82Zm62.62-137.86c2.8,0,4.67.93,6.54,2.34l19.16-16.36c-3.74-4.21-7.48-8.41-12.15-12.15-18.23-16.36-42.06-28.51-69.17-35.98l50.94,63.56c1.4-.93,3.27-1.4,4.67-1.4Zm10.28,6.54c.93,1.4,1.4,3.27,1.4,5.14,0,2.34-.93,4.67-2.34,6.54l51.41,64.03c-.47-36.45-11.68-67.76-31.31-92.07l-19.16,16.36Zm-5.61,15.42c-1.4.47-2.8.93-4.67.93-6.08,0-11.22-5.14-11.22-11.22,0-2.8.93-5.14,2.34-7.01l-53.74-66.83-7.48,83.65c6.08,1.4,10.28,7.01,10.28,13.55v2.8l115.9,47.67-51.41-63.56Z"/>
</svg>